<svg width="32" height="32" viewBox="0 0 32 32" fill="none" xmlns="http://www.w3.org/2000/svg">
  <!-- Background Circle -->
  <circle cx="16" cy="16" r="16" fill="#0A0A0A"/>
  
  <!-- Robot Head -->
  <rect x="10" y="8" width="12" height="10" rx="2" fill="#00FF88" opacity="0.9"/>
  
  <!-- Eyes -->
  <circle cx="13" cy="12" r="1.5" fill="#0A0A0A"/>
  <circle cx="19" cy="12" r="1.5" fill="#0A0A0A"/>
  
  <!-- Antenna -->
  <line x1="16" y1="8" x2="16" y2="5" stroke="#00FF88" stroke-width="1.5" stroke-linecap="round"/>
  <circle cx="16" cy="4" r="1.5" fill="#00FF88"/>
  
  <!-- Mouth/Code Symbol -->
  <path d="M 12 15 L 14 16 L 12 17" stroke="#0A0A0A" stroke-width="1" stroke-linecap="round" stroke-linejoin="round" fill="none"/>
  <path d="M 20 15 L 18 16 L 20 17" stroke="#0A0A0A" stroke-width="1" stroke-linecap="round" stroke-linejoin="round" fill="none"/>
  <line x1="15" y1="15" x2="17" y2="17" stroke="#0A0A0A" stroke-width="1" stroke-linecap="round"/>
  
  <!-- Body -->
  <rect x="11" y="19" width="10" height="6" rx="1" fill="#00FF88" opacity="0.7"/>
  
  <!-- Arms -->
  <rect x="7" y="20" width="3" height="1.5" rx="0.5" fill="#00FF88" opacity="0.7"/>
  <rect x="22" y="20" width="3" height="1.5" rx="0.5" fill="#00FF88" opacity="0.7"/>
  
  <!-- Legs -->
  <rect x="12" y="25" width="2" height="3" rx="0.5" fill="#00FF88" opacity="0.7"/>
  <rect x="18" y="25" width="2" height="3" rx="0.5" fill="#00FF88" opacity="0.7"/>
  
  <!-- Glow Effect -->
  <circle cx="16" cy="16" r="14" fill="none" stroke="#00FF88" stroke-width="0.5" opacity="0.3"/>
</svg>
